<?xml version="1.0" encoding="utf-8"?>
<!-- Generator: Adobe Illustrator 19.2.1, SVG Export Plug-In . SVG Version: 6.00 Build 0)  -->
<svg version="1.1" id="Capa_1" xmlns="http://www.w3.org/2000/svg" xmlns:xlink="http://www.w3.org/1999/xlink" x="0px" y="0px"
	 viewBox="0 0 512 512" style="enable-background:new 0 0 512 512;" xml:space="preserve">
<style type="text/css">
	.st0{fill:#E52828;stroke:#000000;stroke-miterlimit:10;}
	.st1{fill:#FFFFFF;}
</style>
<circle class="st0" cx="256" cy="256" r="256"/>
<g>
	<path class="st1" d="M366.1,141.3c-28-25.8-62.8-38.7-104.3-38.7c-43.7,0-80.9,14.6-111.6,44S104,212.4,104,256.1
		c0,41.9,14.6,77.9,43.9,108c29.4,30.2,68.8,45.2,118.4,45.2c29.9,0,59.3-6.1,88.1-18.5c9.4-4,14-14.8,10.1-24.2l0,0
		c-3.9-9.8-15.1-14.3-24.8-10.1c-25,10.8-49.6,16.1-73.5,16.1c-38.1,0-67.5-11.6-88.4-34.8c-20.8-23.2-31.3-50.4-31.3-81.6
		c0-33.9,11.2-62.2,33.5-84.9c22.3-22.7,49.8-34,82.3-34c30,0,55.3,9.3,76,28c20.7,18.6,31,42.1,31,70.4c0,19.3-4.8,35.5-14.2,48.3
		c-9.5,12.9-19.3,19.3-29.5,19.3c-5.5,0-8.3-2.9-8.3-8.9c0-4.8,0.4-10.5,1.1-17l11.6-95.2H290l-2.6,9.3
		c-10.2-8.3-21.4-12.5-33.5-12.5c-19.3,0-35.8,7.7-49.5,23c-13.8,15.3-20.6,35.1-20.6,59.3c0,23.6,6.1,42.7,18.3,57.1
		c12.2,14.5,26.8,21.7,44,21.7c15.3,0,28.4-6.4,39.3-19.3c8.2,12.3,20.3,18.5,36.2,18.5c23.5,0,43.7-10.2,60.8-30.7
		c17.1-20.4,25.7-45.1,25.7-73.9C408,198.3,394.1,167.1,366.1,141.3z M273.8,285.3c-7.1,9.5-15.5,14.3-25.3,14.3
		c-6.7,0-12.1-3.5-16.1-10.5c-4.1-7-6.2-15.7-6.2-26.2c0-12.9,2.9-23.3,8.6-31.2c5.8-7.9,12.9-11.9,21.4-11.9c7.4,0,14,2.9,19.7,8.9
		s8.6,13.8,8.6,23.7C284.4,264.8,280.9,275.7,273.8,285.3z"/>
</g>
</svg>
