<svg id="Layer_1" data-name="Layer 1" xmlns="http://www.w3.org/2000/svg" viewBox="0 0 156.67 76.67">
  <defs>
    <style>
      .cls-1 {
        fill: #fefefe;
      }

      .cls-2 {
        fill: #e2e2e2;
      }

      .cls-3 {
        fill: #eed69c;
      }

      .cls-4 {
        fill: #1a1a18;
      }

      .cls-5 {
        fill: #1b1b19;
      }

      .cls-6 {
        fill: #d9a31f;
      }
    </style>
  </defs>
  <title>logo_pin_only</title>
  <g>
    <path class="cls-1" d="M403,255c0-4-1.56-9.56.44-11.56S411,243,415,243q70.25,0,140.5-.08c3,0,3.61.6,3.59,3.58q-0.23,34.5,0,69c0,3-.6,3.6-3.59,3.59C521.67,319,487.83,319,454,319a2,2,0,0,1-.35-1.58c1.66-5.55.68-11.26,0.93-16.89,0.07-1.5,0-3,.16-4.49,0.35-2.89,1.7-3.84,4.37-2.3,3.24,1.86,6.61,3.24,10.45,2.52,6.3-1.17,10.79-4.72,12.4-10.93,2.54-9.82,3-19.78-.82-29.42s-14.37-12.42-22.44-5.84c-2.48,2-4.06,2.47-5.85-.55a3.54,3.54,0,0,0-4.34-1.6c-1.81.55-2,2.15-2,3.63-0.09,20.82-.27,41.64.08,62.45a19.85,19.85,0,0,0,.78,3.41A2,2,0,0,1,447,319c-13.6,0-27.2-.11-40.8.09-2.84,0-3.3-.66-3.28-3.36,0.14-18.24.08-36.49,0.08-54.73a1.14,1.14,0,0,1,1.33-.07c1.75,1.77,2.8,4.11,4.7,5.79a11.93,11.93,0,0,0,16.64-.82,11.7,11.7,0,0,0-.84-16.58,12,12,0,0,0-16.66.55c-1.49,1.59-2.23,3.71-3.84,5.21A1.13,1.13,0,0,1,403,255Z" transform="translate(-402.42 -242.42)"/>
    <path class="cls-2" d="M454,318.12q0,0.44,0,.88h-7q0-.42,0-0.83C449.31,316.12,451.66,316.15,454,318.12Z" transform="translate(-402.42 -242.42)"/>
    <path class="cls-3" d="M403.88,261.08A8,8,0,0,1,403,261v-6a2.72,2.72,0,0,1,.86-0.09C405.71,257,405.7,259,403.88,261.08Z" transform="translate(-402.42 -242.42)"/>
    <path class="cls-4" d="M454,318.12l-7,0c-2.57-.9-2.08-3.1-2.08-5q0-31,0-61.93c0-2.15-.9-5,2.78-5.28,3.21-.21,6.55-0.53,7.1,4a8.08,8.08,0,0,0,.46,1.44c7-10,23.94-9.36,28.53,7.13a48,48,0,0,1,.12,25.66c-3.66,13.51-16.31,17.79-28.13,9,0,6.84,0,13.21,0,19.58C455.76,314.74,456.19,316.86,454,318.12Z" transform="translate(-402.42 -242.42)"/>
    <path class="cls-4" d="M530.07,251.68c2.81-2.05,4.65-4,7.12-5.11,10.7-4.91,20.2.84,20.49,12.57,0.15,6,0,12,0,18q0,6.75,0,13.5c0,6.22-2.61,8.07-8.75,6.45-2.52-.67-2.24-2.56-2.25-4.35,0-10,0-20,0-30,0-3.25.6-7.13-3.84-8.15s-7.73,1-10.06,4.78A13.78,13.78,0,0,0,531,267c0.05,8.5-.18,17,0.1,25.49,0.15,4.52-2.29,4.64-5.65,4.68s-5.61-.34-5.52-4.77c0.25-13.33,0-26.66.16-40,0-2.43-1.69-6,3-6.55C527.16,245.41,530,246.4,530.07,251.68Z" transform="translate(-402.42 -242.42)"/>
    <path class="cls-5" d="M506.84,271.82c0,7-.19,14,0.07,20.94,0.17,4.71-2.71,4.33-5.85,4.42-3.32.1-5.26-.44-5.21-4.54q0.3-21.18,0-42.37c-0.06-4.2,2.13-4.45,5.32-4.43s5.9,0,5.74,4.56C506.64,257.52,506.84,264.67,506.84,271.82Z" transform="translate(-402.42 -242.42)"/>
    <path class="cls-6" d="M403.88,261.08q0-3.09,0-6.17,4-11.09,14.66-10a13.07,13.07,0,0,1,2.55,25.41C413.76,272.89,407,269.22,403.88,261.08Z" transform="translate(-402.42 -242.42)"/>
    <path class="cls-1" d="M473.93,271.8a34.71,34.71,0,0,1-1.76,11.26c-1.22,3.27-3.45,5.22-7,5.35s-6.29-1.42-7.53-4.66a32.21,32.21,0,0,1,.22-24.72,7,7,0,0,1,7.17-4.41,7.26,7.26,0,0,1,6.61,4.54C473.49,263.15,473.88,267.45,473.93,271.8Z" transform="translate(-402.42 -242.42)"/>
  </g>
</svg>
